<svg xmlns="http://www.w3.org/2000/svg" viewBox="0 0 512 512" role="img" aria-label="NCore logo">
  <defs>
    <linearGradient id="bgGradient" x1="0%" y1="0%" x2="100%" y2="100%">
      <stop offset="0%" stop-color="#2d3139"/>
      <stop offset="100%" stop-color="#15181e"/>
    </linearGradient>
    <filter id="softShadow" x="-20%" y="-20%" width="140%" height="140%">
      <feDropShadow dx="0" dy="10" stdDeviation="12" flood-color="#000000" flood-opacity="0.35"/>
    </filter>
  </defs>

  <circle cx="256" cy="256" r="236" fill="url(#bgGradient)" stroke="#4a4f58" stroke-width="3" filter="url(#softShadow)"/>

  <path
    d="M151 304V167c0-25 20-45 45-45 13 0 26 6 34 16l73 91c5 6 14 9 22 6l39-12-80-99c-9-11-22-17-36-17h-52c-40 0-73 33-73 73v124z"
    fill="#ffffff"/>

  <path
    d="M352 154c0-18 15-33 33-33s33 15 33 33-15 33-33 33-33-15-33-33zm4 67v95c0 25-20 45-45 45h-62c-8 0-15-7-15-15s7-15 15-15h62c8 0 15-7 15-15v-95c0-8 7-15 15-15s15 7 15 15z"
    fill="#ffffff"/>

  <text
    x="256"
    y="426"
    text-anchor="middle"
    fill="#ffffff"
    font-family="Inter, system-ui, -apple-system, sans-serif"
    font-weight="700"
    font-size="96"
    letter-spacing="1">
    Core
  </text>
</svg>
